<svg width="1000" height="85" viewBox="0 0 1000 85" fill="none" xmlns="http://www.w3.org/2000/svg">
<mask id="mask0_1829_113" style="mask-type:luminance" maskUnits="userSpaceOnUse" x="0" y="5" width="479" height="75">
<path d="M0 5H478.125V80H0V5Z" fill="white"/>
</mask>
<g mask="url(#mask0_1829_113)">
<path d="M45.9744 22.8687C42.9236 21.6053 39.6414 20.9968 36.3401 21.0827C33.0391 21.1686 29.7929 21.947 26.8119 23.3675C24.3926 24.5328 22.1892 26.1015 20.2963 28.0062L4.18634 44.197C1.73566 46.6617 0.360461 49.9967 0.361329 53.4725C0.361329 60.667 6.25259 66.5862 13.4113 66.5862H13.4151C13.5726 66.5862 13.7301 66.5862 13.8876 66.577C12.323 65.993 10.9321 65.0215 9.84516 63.7537C8.75824 62.4857 8.01081 60.9627 7.67286 59.3272C7.33489 57.6917 7.41744 55.9972 7.91279 54.4025C8.40814 52.8075 9.30006 51.3645 10.5051 50.2082L23.9788 36.6745L25.4076 35.2307L25.8914 34.745L26.4389 34.192C26.7764 33.86 27.1231 33.5412 27.4814 33.2375C33.0421 28.3572 40.1901 25.669 47.5889 25.6756C48.7926 25.6756 49.9964 25.745 51.1926 25.8856C49.5904 24.6581 47.8356 23.6434 45.9726 22.8669L45.9744 22.8687ZM100.574 29.2625C97.8781 22.5987 90.2056 19.3381 83.5701 22.04L83.4031 22.1094C81.8491 22.768 80.4379 23.7226 79.2481 24.92L69.3914 34.8275L67.9681 36.2525C67.9251 36.2937 67.8819 36.337 67.8369 36.3762C67.0111 37.1352 65.9241 37.546 64.8026 37.523C63.6814 37.5 62.6121 37.0447 61.8181 36.2525L54.2544 28.6531C48.5989 27.2903 42.6611 27.6974 37.2444 29.8194C41.0894 29.8872 44.7554 31.4557 47.4594 34.19L60.5356 47.33C61.6934 48.4817 63.2601 49.1285 64.8931 49.1285C66.5264 49.1285 68.0929 48.4817 69.2506 47.33L85.3944 31.1075C85.5501 30.95 85.7189 30.8057 85.8969 30.6725C87.6691 29.1466 89.9296 28.307 92.2681 28.3062C94.2971 28.3119 96.2744 28.9461 97.9281 30.1215C99.5819 31.2972 100.831 32.9562 101.503 34.8707C101.605 32.9557 101.287 31.0415 100.571 29.2625H100.574ZM92.2756 30.4962C91.8331 30.4962 91.3944 30.5337 90.9594 30.6107C91.4816 30.9775 91.9174 31.454 92.2364 32.0067C92.5554 32.5597 92.7496 33.1755 92.8056 33.8112C92.8616 34.447 92.7781 35.0872 92.5611 35.6875C92.3439 36.2875 91.9981 36.833 91.5481 37.2857L75.5076 53.4107L75.4044 53.5137C75.1236 53.7965 74.8314 54.068 74.5289 54.3275C68.9319 59.3512 61.6741 62.127 54.1531 62.12C53.0339 62.12 51.9126 62.06 50.7989 61.9382C54.2249 64.4962 58.2826 66.0737 62.5371 66.5015C66.7914 66.9292 71.0819 66.1912 74.9489 64.3662C77.4034 63.2052 79.6366 61.6252 81.5489 59.6975L97.2031 43.9737L97.7001 43.4732C97.8764 43.297 98.0451 43.117 98.2101 42.9312C99.2929 41.5727 99.8826 39.8872 99.8826 38.15C99.8826 33.9537 96.4456 30.5 92.2719 30.5H92.2681L92.2756 30.4962ZM64.7376 57.8807C60.8444 57.844 57.1226 56.2735 54.3801 53.51L41.3656 40.432C40.7906 39.845 40.1054 39.3775 39.3491 39.0557C38.5931 38.734 37.7811 38.5645 36.9594 38.557C36.1474 38.5542 35.3431 38.7132 34.5934 39.025C33.8436 39.3365 33.1634 39.7945 32.5926 40.372L28.7544 44.2345L27.1381 45.8562L23.3845 49.6307L21.8282 51.1962L19.2557 53.7857L16.957 56.0957L16.4976 56.5607C16.0426 57.0182 15.4913 57.3687 14.8838 57.5862C14.2763 57.804 13.6279 57.8835 12.9858 57.819C12.3438 57.7545 11.7241 57.5477 11.1721 57.2135C10.62 56.8795 10.1494 56.4265 9.79446 55.8875C9.70344 56.3632 9.65761 56.8467 9.65759 57.3312C9.65759 61.5275 13.0926 64.9812 17.2682 64.985C19.1914 64.9845 21.0425 64.2532 22.447 62.9395L22.5463 62.842L22.6457 62.7445L22.7769 62.6132L27.0181 58.3495L33.9089 51.425C34.7281 50.6255 35.8291 50.1807 36.9739 50.187C38.1186 50.1932 39.2146 50.6502 40.0251 51.4587L47.7314 59.2025C53.3994 60.515 59.3376 60.0537 64.7376 57.8807ZM139.711 26.84V43.5462L122.563 26.6994H119.413V60.92H128.375V44.1687L145.471 60.9687H148.58V26.84H139.711ZM167.324 60.9875V26.9037H158.731V34.4975H158.746V53.3412H158.731V60.9837H167.324V60.9875ZM192.778 26.4256H189.05L173.788 59.6787L173.204 60.9445H182.261L184.248 56.66H197.621L199.608 60.9445H208.666L208.087 59.6787L192.778 26.4256ZM187.063 49.2107L190.889 40.2537L194.812 49.2107H187.063ZM243.144 41.5157H227.113V49.0607H234.322C232.771 52.3232 230.542 53.2495 227.054 53.2495C221.919 53.2495 218.624 49.5482 218.624 43.9007C218.624 38.69 221.579 34.4095 227.054 34.4095C230.493 34.4095 232.723 35.5775 234.127 38.4987H242.654C241.006 30.0275 233.885 26.4744 227.054 26.4237C218.431 26.4237 209.711 32.2682 209.656 43.91C209.705 55.5445 218.424 61.3382 227.054 61.3382C233.304 61.3382 239.746 58.612 242.171 51.5037C243.331 48.187 243.331 44.9225 243.144 41.5157ZM264.724 26.4256H260.997L245.733 59.6787L245.154 60.9445H254.209L256.197 56.66H269.569L271.557 60.9445H280.617L280.032 59.6787L264.724 26.4256ZM259.009 49.2107L262.834 40.2537L266.759 49.2107H259.009ZM303.942 26.9056V39.2695H293.477V26.9056H284.607V60.9875H293.477V47.3075H303.942V60.9875H312.807V26.9056H303.942ZM319.287 43.9607C319.287 67.5725 354.072 67.5725 354.072 43.9607C354.072 20.3956 319.287 20.3956 319.287 43.9607ZM328.202 43.9607C328.202 31.6907 345.207 31.6907 345.207 43.9607C345.019 46.0865 344.042 48.0655 342.469 49.507C340.894 50.9485 338.837 51.748 336.704 51.748C334.569 51.748 332.512 50.9485 330.939 49.507C329.364 48.0655 328.389 46.0865 328.202 43.9607ZM372.439 40.6737C369.384 40.3325 366.867 39.8 367.059 37.2182C367.349 33.1757 376.459 32.7857 376.459 37.3157H384.694C384.887 22.61 358.534 22.61 358.824 37.3157C358.919 44.7145 363.767 47.2457 371.127 47.782C374.517 47.977 377.327 48.5132 377.327 50.9037C377.327 54.8995 366.717 54.847 366.717 50.5137H358.334C358.144 65.51 385.757 65.2662 385.757 50.9525C385.759 42.4212 379.172 41.3995 372.439 40.6737ZM388.779 26.9056V34.6945H397.107V60.9875H405.679V34.6945H413.964V26.9056H388.779ZM427.849 53.2457V47.257H439.377V39.5132H427.849V34.6945H440.397V26.9056H419.224V60.9875H440.832V53.2437L427.849 53.2457ZM470.349 48.9125C478.924 43.07 476.502 26.9562 463.177 26.9056H448.302V60.9875H456.977V50.9562H461.484L467.299 60.9875H477.762L476.987 59.722L470.349 48.9125ZM463.177 43.2162H456.977V34.6945C459.012 34.6945 461.142 34.6475 463.177 34.6945C468.119 34.7432 467.877 43.2162 463.177 43.2162Z" fill="white"/>
</g>
<line x1="521.5" y1="22.5" x2="521.5" y2="62.5" stroke="#8A3EFF" stroke-width="3"/>
<path d="M569.095 25.8477H586.14C591.142 25.8897 594.768 27.3321 597.015 30.1725C599.263 33.0129 600.004 36.8925 599.241 41.8113C598.945 44.0589 598.287 46.2633 597.27 48.4257C596.294 50.5881 594.938 52.5381 593.199 54.2769C591.079 56.4813 588.811 57.8805 586.394 58.4745C583.977 59.0685 581.475 59.3649 578.889 59.3649H571.257L568.84 71.4489H560L569.095 25.8477ZM576.536 33.0981L572.72 52.1781C572.974 52.2201 573.229 52.2417 573.483 52.2417C573.78 52.2417 574.077 52.2417 574.374 52.2417C578.444 52.2837 581.836 51.8817 584.55 51.0333C587.263 50.1429 589.087 47.0481 590.019 41.7477C590.782 37.2957 590.019 34.7301 587.73 34.0521C585.482 33.3741 582.663 33.0561 579.271 33.0981C578.762 33.1401 578.275 33.1617 577.808 33.1617C577.384 33.1617 576.939 33.1617 576.472 33.1617L576.536 33.0981Z" fill="white"/>
<path d="M609.311 13.7002H618.088L615.607 25.8478H623.494C627.818 25.933 631.04 26.8234 633.161 28.519C635.323 30.2146 635.959 33.4378 635.069 38.1862L630.808 59.365H621.904L625.974 39.1402C626.398 37.0198 626.27 35.515 625.592 34.6246C624.914 33.7342 623.452 33.289 621.204 33.289L614.144 33.2254L608.929 59.365H600.152L609.311 13.7002Z" fill="white"/>
<path d="M644.495 25.8477H661.54C666.543 25.8897 670.168 27.3321 672.416 30.1725C674.663 33.0129 675.405 36.8925 674.642 41.8113C674.345 44.0589 673.688 46.2633 672.67 48.4257C671.694 50.5881 670.338 52.5381 668.6 54.2769C666.479 56.4813 664.211 57.8805 661.794 58.4745C659.378 59.0685 656.876 59.3649 654.29 59.3649H646.658L644.241 71.4489H635.4L644.495 25.8477ZM651.936 33.0981L648.12 52.1781C648.375 52.2201 648.629 52.2417 648.884 52.2417C649.18 52.2417 649.478 52.2417 649.774 52.2417C653.844 52.2837 657.237 51.8817 659.95 51.0333C662.663 50.1429 664.487 47.0481 665.42 41.7477C666.183 37.2957 665.42 34.7301 663.13 34.0521C660.882 33.3741 658.064 33.0561 654.671 33.0981C654.162 33.1401 653.675 33.1617 653.208 33.1617C652.785 33.1617 652.34 33.1617 651.873 33.1617L651.936 33.0981Z" fill="white"/>
<line x1="721.5" y1="22.5" x2="721.5" y2="62.5" stroke="#8A3EFF" stroke-width="3"/>
<path d="M834.949 0L828.121 76.4911L797.428 85L766.821 76.5031L760 0H834.949Z" fill="#264DE4"/>
<path d="M822.275 71.6205L828.11 6.25537H797.475V78.4963L822.275 71.6205Z" fill="#2965F1"/>
<path d="M775.637 34.6289L776.478 44.0116H797.475V34.6289H775.637Z" fill="#EBEBEB"/>
<path d="M797.475 15.6382H797.442H773.947L774.8 25.0211H797.475V15.6382Z" fill="#EBEBEB"/>
<path d="M797.474 68.7595V58.9975L797.433 59.0085L786.983 56.1868L786.315 48.7036H781.238H776.896L778.211 63.4359L797.431 68.7715L797.474 68.7595Z" fill="#EBEBEB"/>
<path d="M808.995 44.0119L807.906 56.1807L797.441 59.0052V68.7668L816.677 63.4358L816.818 61.8506L819.023 37.1487L819.252 34.6292L820.945 15.6382H797.441V25.0211H810.663L809.809 34.6292H797.441V44.0119H808.995Z" fill="white"/>
<line x1="876.449" y1="22.5" x2="876.449" y2="62.5" stroke="#8A3EFF" stroke-width="3"/>
<g clip-path="url(#clip0_1829_113)">
<path d="M999.949 0H914.949V85H999.949V0Z" fill="#F7DF1E"/>
<path d="M972.048 66.4064C973.76 69.2019 975.988 71.2568 979.927 71.2568C983.237 71.2568 985.351 69.6027 985.351 67.3171C985.351 64.5782 983.179 63.6081 979.536 62.0147L977.539 61.158C971.775 58.7024 967.946 55.6262 967.946 49.1231C967.946 43.1326 972.511 38.5723 979.644 38.5723C984.722 38.5723 988.373 40.3397 991.004 44.9675L984.784 48.9612C983.415 46.5056 981.938 45.5382 979.644 45.5382C977.304 45.5382 975.822 47.0223 975.822 48.9612C975.822 51.3573 977.306 52.3274 980.733 53.8115L982.73 54.6669C989.516 57.5772 993.348 60.5441 993.348 67.2146C993.348 74.4058 987.699 78.3455 980.112 78.3455C972.694 78.3455 967.902 74.8106 965.557 70.1774L972.048 66.4064ZM943.832 67.0985C945.087 69.3247 946.228 71.2069 948.972 71.2069C951.597 71.2069 953.252 70.1801 953.252 66.1878V39.0283H961.239V66.2958C961.239 74.5664 956.39 78.3307 949.312 78.3307C942.917 78.3307 939.214 75.0211 937.33 71.0348L943.832 67.0985Z" fill="black"/>
</g>
<defs>
<clipPath id="clip0_1829_113">
<rect width="85" height="85" fill="white" transform="translate(914.949)"/>
</clipPath>
</defs>
</svg>
